<svg width="59" height="50" viewBox="0 0 59 50" fill="none" xmlns="http://www.w3.org/2000/svg">
<path d="M46 1.5C46 7.46737 44 13.5 41 17.4099C37 21.5 37 24 25.5222 24C14.0444 24 14 22.1151 9.61232 17.4099C5.22463 12.7047 5 7.96737 5 2H9C9 10.5 12.4388 14.5834 12.4388 14.5834C12.4388 14.5834 15.5222 20.0027 25.5222 20.0027C35.5222 20.0027 38 14.5834 38 14.5834C38 14.5834 41.4321 8.5 41.4321 1.5H46Z" fill="#2F2105"/>
<path d="M41.4596 9.5273C41.8656 10.8568 42.6895 12.02 43.8091 12.8441C44.9286 13.6682 46.2841 14.1094 47.6742 14.102C49.0643 14.0946 50.415 13.6391 51.5258 12.8032C52.6365 11.9673 53.4481 10.7954 53.84 9.46164C54.2319 8.12786 54.1832 6.70326 53.7012 5.39934C53.2192 4.09542 52.3296 2.98169 51.1643 2.2235C49.9991 1.46532 48.6205 1.1031 47.2331 1.19061C45.8457 1.27813 44.5235 1.81072 43.4628 2.70932L45.6146 5.24923C46.1289 4.81352 46.77 4.55529 47.4427 4.51285C48.1154 4.47042 48.7838 4.64605 49.3488 5.01367C49.9138 5.38129 50.3452 5.9213 50.5789 6.55354C50.8126 7.18577 50.8362 7.87651 50.6462 8.52322C50.4561 9.16993 50.0626 9.73813 49.5241 10.1434C48.9855 10.5488 48.3306 10.7696 47.6566 10.7732C46.9825 10.7768 46.3253 10.5629 45.7825 10.1633C45.2396 9.7637 44.8401 9.19972 44.6433 8.55506L41.4596 9.5273Z" fill="#2F2105"/>
<path d="M39 1.59495C39 5.94584 37.525 10.1185 34.8995 13.1951C32.274 16.2716 28.713 18 25 18C21.287 18 17.726 16.2716 15.1005 13.1951C12.475 10.1185 11 5.94584 11 1.59495C11 1.59495 19 5.18358 25 1.59495C31 -1.99369 39 1.59495 39 1.59495Z" fill="#F4AE26"/>
<rect x="6" y="27" width="47" height="3" rx="1.5" fill="#2F2105"/>
<path d="M3.6 44.06C3.048 44.06 2.548 43.924 2.1 43.652C1.66 43.38 1.312 42.988 1.056 42.476C0.8 41.956 0.672 41.344 0.672 40.64C0.672 39.424 0.932 38.3 1.452 37.268C1.972 36.228 2.74 35.396 3.756 34.772C4.772 34.14 5.992 33.824 7.416 33.824C7.784 33.824 8.176 33.852 8.592 33.908C9.016 33.964 9.4 34.048 9.744 34.16C9.968 34.224 10.08 34.384 10.08 34.64C10.08 34.848 10 35.044 9.84 35.228C9.688 35.412 9.508 35.504 9.3 35.504C9.236 35.504 9.188 35.5 9.156 35.492C8.74 35.396 8.384 35.328 8.088 35.288C7.792 35.24 7.48 35.216 7.152 35.216C6.136 35.216 5.272 35.464 4.56 35.96C3.848 36.448 3.316 37.096 2.964 37.904C2.612 38.712 2.436 39.584 2.436 40.52C2.436 41.2 2.568 41.728 2.832 42.104C3.104 42.472 3.456 42.656 3.888 42.656C4.376 42.656 4.804 42.456 5.172 42.056C5.54 41.656 5.876 41.008 6.18 40.112C6.484 39.216 6.784 38 7.08 36.464C7.128 36.24 7.224 36.088 7.368 36.008C7.512 35.928 7.704 35.888 7.944 35.888C8.512 35.888 8.796 36.072 8.796 36.44C8.796 36.504 8.784 36.584 8.76 36.68C8.552 37.456 8.36 38.316 8.184 39.26C8.016 40.196 7.932 40.908 7.932 41.396C7.932 41.828 7.996 42.144 8.124 42.344C8.252 42.536 8.448 42.632 8.712 42.632C8.968 42.632 9.212 42.548 9.444 42.38C9.676 42.204 9.968 41.908 10.32 41.492C10.416 41.38 10.524 41.324 10.644 41.324C10.748 41.324 10.828 41.372 10.884 41.468C10.948 41.564 10.98 41.696 10.98 41.864C10.98 42.176 10.904 42.424 10.752 42.608C10.36 43.08 9.976 43.44 9.6 43.688C9.224 43.936 8.764 44.06 8.22 44.06C7.66 44.06 7.208 43.9 6.864 43.58C6.52 43.252 6.304 42.792 6.216 42.2C5.624 43.44 4.752 44.06 3.6 44.06ZM14.5576 41.324C14.6616 41.324 14.7416 41.372 14.7976 41.468C14.8616 41.564 14.8936 41.696 14.8936 41.864C14.8936 42.184 14.8176 42.432 14.6656 42.608C14.3216 43.032 13.9456 43.38 13.5376 43.652C13.1376 43.924 12.6816 44.06 12.1696 44.06C11.4656 44.06 10.9416 43.74 10.5976 43.1C10.2616 42.46 10.0936 41.632 10.0936 40.616C10.0936 39.64 10.2176 38.528 10.4656 37.28C10.7216 36.032 11.0936 34.96 11.5816 34.064C12.0776 33.168 12.6656 32.72 13.3456 32.72C13.7296 32.72 14.0296 32.9 14.2456 33.26C14.4696 33.612 14.5816 34.12 14.5816 34.784C14.5816 35.736 14.3176 36.84 13.7896 38.096C13.2616 39.352 12.5456 40.596 11.6416 41.828C11.6976 42.156 11.7896 42.392 11.9176 42.536C12.0456 42.672 12.2136 42.74 12.4216 42.74C12.7496 42.74 13.0376 42.648 13.2856 42.464C13.5336 42.272 13.8496 41.948 14.2336 41.492C14.3296 41.38 14.4376 41.324 14.5576 41.324ZM13.0816 33.908C12.8976 33.908 12.6896 34.24 12.4576 34.904C12.2256 35.568 12.0216 36.392 11.8456 37.376C11.6696 38.36 11.5736 39.304 11.5576 40.208C12.1256 39.272 12.5776 38.336 12.9136 37.4C13.2496 36.456 13.4176 35.596 13.4176 34.82C13.4176 34.212 13.3056 33.908 13.0816 33.908ZM20.3317 41.324C20.4357 41.324 20.5157 41.372 20.5717 41.468C20.6357 41.564 20.6677 41.696 20.6677 41.864C20.6677 42.184 20.5917 42.432 20.4397 42.608C20.0957 43.032 19.7237 43.38 19.3237 43.652C18.9317 43.924 18.4837 44.06 17.9797 44.06C17.5557 44.06 17.2117 43.908 16.9477 43.604C16.4917 43.9 16.0157 44.052 15.5197 44.06C15.4157 45.604 15.1797 46.892 14.8117 47.924C14.4437 48.964 13.9037 49.484 13.1917 49.484C12.7597 49.484 12.4397 49.328 12.2317 49.016C12.0237 48.704 11.9197 48.272 11.9197 47.72C11.9197 46.936 12.0997 46.02 12.4597 44.972C12.8197 43.932 13.3757 42.784 14.1277 41.528C14.1277 40.36 14.1197 39.548 14.1037 39.092C14.0957 38.86 14.1877 38.676 14.3797 38.54C14.5717 38.404 14.8117 38.336 15.0997 38.336C15.2677 38.336 15.3877 38.372 15.4597 38.444C15.5397 38.508 15.5837 38.64 15.5917 38.84C15.5917 39.04 15.5957 39.188 15.6037 39.284C15.8597 38.964 16.1117 38.736 16.3597 38.6C16.6077 38.456 16.8717 38.384 17.1517 38.384C17.5997 38.384 17.9637 38.564 18.2437 38.924C18.5317 39.284 18.6757 39.756 18.6757 40.34C18.6757 40.764 18.6077 41.176 18.4717 41.576C18.3357 41.976 18.1477 42.34 17.9077 42.668C18.0757 42.716 18.2157 42.74 18.3277 42.74C18.5917 42.74 18.8437 42.644 19.0837 42.452C19.3237 42.26 19.6317 41.94 20.0077 41.492C20.1037 41.38 20.2117 41.324 20.3317 41.324ZM15.5797 42.908C15.8677 42.844 16.1317 42.688 16.3717 42.44C16.6197 42.184 16.8157 41.872 16.9597 41.504C17.1037 41.128 17.1757 40.736 17.1757 40.328C17.1757 40.088 17.1277 39.908 17.0317 39.788C16.9357 39.66 16.8077 39.596 16.6477 39.596C16.3597 39.596 16.0117 39.9 15.6037 40.508C15.5957 40.86 15.5917 41.376 15.5917 42.056C15.5917 42.424 15.5877 42.708 15.5797 42.908ZM13.2877 48.308C13.5037 48.308 13.6837 47.836 13.8277 46.892C13.9717 45.956 14.0637 44.788 14.1037 43.388C13.7597 44.188 13.4877 44.952 13.2877 45.68C13.0877 46.408 12.9877 47.02 12.9877 47.516C12.9877 47.772 13.0197 47.968 13.0837 48.104C13.1397 48.24 13.2077 48.308 13.2877 48.308ZM26.361 41.324C26.465 41.324 26.545 41.372 26.601 41.468C26.665 41.564 26.697 41.696 26.697 41.864C26.697 42.184 26.621 42.432 26.469 42.608C26.101 43.032 25.721 43.38 25.329 43.652C24.945 43.924 24.505 44.06 24.009 44.06C23.601 44.06 23.293 43.944 23.085 43.712C22.877 43.472 22.773 43.128 22.773 42.68C22.773 42.456 22.829 42.056 22.941 41.48C23.045 40.976 23.097 40.628 23.097 40.436C23.097 40.308 23.053 40.244 22.965 40.244C22.861 40.244 22.713 40.38 22.521 40.652C22.329 40.916 22.137 41.268 21.945 41.708C21.753 42.148 21.597 42.612 21.477 43.1C21.325 43.74 20.949 44.06 20.349 44.06C20.109 44.06 19.949 43.976 19.869 43.808C19.797 43.632 19.761 43.32 19.761 42.872C19.761 42.616 19.765 42.412 19.773 42.26L19.785 41.3C19.785 40.068 19.909 38.784 20.157 37.448C20.413 36.112 20.785 34.992 21.273 34.088C21.769 33.176 22.361 32.72 23.049 32.72C23.417 32.72 23.713 32.88 23.937 33.2C24.169 33.512 24.285 33.92 24.285 34.424C24.285 35.232 24.049 36.072 23.577 36.944C23.105 37.808 22.337 38.82 21.273 39.98C21.249 40.396 21.237 40.824 21.237 41.264C21.501 40.584 21.793 40.032 22.113 39.608C22.441 39.176 22.761 38.868 23.073 38.684C23.393 38.5 23.685 38.408 23.949 38.408C24.469 38.408 24.729 38.668 24.729 39.188C24.729 39.5 24.641 40.064 24.465 40.88C24.313 41.576 24.237 42.036 24.237 42.26C24.237 42.58 24.353 42.74 24.585 42.74C24.745 42.74 24.933 42.644 25.149 42.452C25.373 42.252 25.669 41.932 26.037 41.492C26.133 41.38 26.241 41.324 26.361 41.324ZM22.797 33.908C22.653 33.908 22.493 34.116 22.317 34.532C22.141 34.94 21.969 35.496 21.801 36.2C21.641 36.896 21.509 37.656 21.405 38.48C21.901 37.896 22.309 37.26 22.629 36.572C22.957 35.884 23.121 35.26 23.121 34.7C23.121 34.444 23.093 34.248 23.037 34.112C22.981 33.976 22.901 33.908 22.797 33.908ZM27.1044 44.06C26.6484 44.06 26.2764 43.88 25.9884 43.52C25.7084 43.16 25.5684 42.688 25.5684 42.104C25.5684 41.464 25.7164 40.86 26.0124 40.292C26.3084 39.716 26.7004 39.256 27.1884 38.912C27.6844 38.56 28.2084 38.384 28.7604 38.384C28.9364 38.384 29.0524 38.42 29.1084 38.492C29.1724 38.556 29.2244 38.676 29.2644 38.852C29.4164 38.82 29.5844 38.804 29.7684 38.804C29.9604 38.804 30.1084 38.852 30.2124 38.948C30.3164 39.044 30.3684 39.18 30.3684 39.356C30.3684 39.54 30.3284 39.86 30.2484 40.316C30.1604 40.804 30.0924 41.272 30.0444 41.72C29.9964 42.16 29.9724 42.656 29.9724 43.208C29.9724 43.512 29.9084 43.732 29.7804 43.868C29.6604 43.996 29.4604 44.06 29.1804 44.06C28.9084 44.06 28.7044 43.996 28.5684 43.868C28.4404 43.732 28.3764 43.516 28.3764 43.22L28.3884 43.028C28.1404 43.716 27.7124 44.06 27.1044 44.06ZM27.5724 42.848C27.7964 42.848 28.0004 42.692 28.1844 42.38C28.3684 42.068 28.5324 41.512 28.6764 40.712L28.9044 39.5C28.5764 39.508 28.2724 39.636 27.9924 39.884C27.7124 40.124 27.4884 40.444 27.3204 40.844C27.1524 41.244 27.0684 41.668 27.0684 42.116C27.0684 42.356 27.1124 42.54 27.2004 42.668C27.2964 42.788 27.4204 42.848 27.5724 42.848Z" fill="#F4AE26"/>
<path d="M39.2563 44.06C38.3043 44.06 37.4763 43.888 36.7723 43.544C36.0683 43.192 35.5283 42.696 35.1523 42.056C34.7763 41.416 34.5883 40.672 34.5883 39.824C34.5883 38.648 34.8083 37.604 35.2483 36.692C35.6963 35.78 36.3003 35.076 37.0603 34.58C37.8203 34.076 38.6643 33.824 39.5923 33.824C40.4563 33.824 41.1123 34.048 41.5603 34.496C42.0083 34.936 42.2323 35.52 42.2323 36.248C42.2323 36.736 42.1443 37.128 41.9683 37.424C41.8003 37.72 41.5563 37.868 41.2363 37.868C41.0123 37.868 40.8363 37.816 40.7083 37.712C40.5803 37.608 40.5163 37.456 40.5163 37.256C40.5163 37.184 40.5323 37.052 40.5643 36.86C40.6123 36.62 40.6363 36.428 40.6363 36.284C40.6363 35.556 40.2483 35.192 39.4723 35.192C38.9443 35.192 38.4403 35.364 37.9603 35.708C37.4803 36.052 37.0923 36.56 36.7963 37.232C36.5003 37.896 36.3523 38.688 36.3523 39.608C36.3523 40.568 36.6203 41.312 37.1563 41.84C37.6923 42.36 38.4843 42.62 39.5323 42.62C40.0523 42.62 40.5763 42.556 41.1043 42.428C41.6403 42.292 42.2323 42.088 42.8803 41.816C43.0003 41.768 43.1003 41.744 43.1803 41.744C43.3083 41.744 43.4043 41.792 43.4683 41.888C43.5323 41.984 43.5643 42.108 43.5643 42.26C43.5643 42.748 43.3003 43.108 42.7723 43.34C42.2043 43.588 41.6123 43.772 40.9963 43.892C40.3883 44.004 39.8083 44.06 39.2563 44.06ZM44.0989 44.06C43.6029 44.06 43.2069 43.88 42.9109 43.52C42.6149 43.16 42.4669 42.688 42.4669 42.104C42.4669 41.464 42.6149 40.86 42.9109 40.292C43.2069 39.716 43.5989 39.256 44.0869 38.912C44.5829 38.56 45.1069 38.384 45.6589 38.384C45.8349 38.384 45.9509 38.42 46.0069 38.492C46.0709 38.556 46.1229 38.676 46.1629 38.852C46.3309 38.82 46.5069 38.804 46.6909 38.804C47.0829 38.804 47.2789 38.944 47.2789 39.224C47.2789 39.392 47.2189 39.792 47.0989 40.424C46.9149 41.344 46.8229 41.984 46.8229 42.344C46.8229 42.464 46.8509 42.56 46.9069 42.632C46.9709 42.704 47.0509 42.74 47.1469 42.74C47.2989 42.74 47.4829 42.644 47.6989 42.452C47.9149 42.252 48.2069 41.932 48.5749 41.492C48.6709 41.38 48.7789 41.324 48.8989 41.324C49.0029 41.324 49.0829 41.372 49.1389 41.468C49.2029 41.564 49.2349 41.696 49.2349 41.864C49.2349 42.184 49.1589 42.432 49.0069 42.608C48.6789 43.016 48.3309 43.36 47.9629 43.64C47.5949 43.92 47.2389 44.06 46.8949 44.06C46.6309 44.06 46.3869 43.972 46.1629 43.796C45.9469 43.612 45.7829 43.364 45.6709 43.052C45.2549 43.724 44.7309 44.06 44.0989 44.06ZM44.5309 42.848C44.7069 42.848 44.8749 42.744 45.0349 42.536C45.1949 42.328 45.3109 42.052 45.3829 41.708L45.8269 39.5C45.4909 39.508 45.1789 39.636 44.8909 39.884C44.6109 40.124 44.3869 40.444 44.2189 40.844C44.0509 41.244 43.9669 41.668 43.9669 42.116C43.9669 42.364 44.0149 42.548 44.1109 42.668C44.2149 42.788 44.3549 42.848 44.5309 42.848ZM52.9304 40.64C53.1544 40.64 53.2664 40.808 53.2664 41.144C53.2664 41.776 52.7704 42.092 51.7784 42.092C51.5864 42.092 51.3104 42.056 50.9504 41.984C51.0544 42.48 51.1384 43.032 51.2024 43.64C51.2744 44.24 51.3104 44.736 51.3104 45.128C51.3104 45.992 51.1704 46.652 50.8904 47.108C50.6104 47.564 50.2424 47.792 49.7864 47.792C49.2104 47.792 48.7984 47.384 48.5504 46.568C48.3104 45.752 48.1904 44.52 48.1904 42.872C48.1904 41.336 48.3544 39.78 48.6824 38.204C49.0184 36.62 49.4744 35.312 50.0504 34.28C50.6344 33.24 51.2744 32.72 51.9704 32.72C52.3464 32.72 52.6384 32.888 52.8464 33.224C53.0624 33.56 53.1704 34.012 53.1704 34.58C53.1704 36.46 52.0464 38.508 49.7984 40.724C49.7184 41.508 49.6784 42.196 49.6784 42.788C49.6784 43.612 49.7064 44.456 49.7624 45.32C49.8184 46.192 49.9104 46.628 50.0384 46.628C50.2784 46.628 50.3984 46.212 50.3984 45.38C50.3984 44.756 50.3544 44.152 50.2664 43.568C50.1864 42.984 50.0744 42.368 49.9304 41.72C49.9224 41.616 49.9544 41.484 50.0264 41.324C50.1064 41.164 50.2024 41.024 50.3144 40.904C50.4264 40.784 50.5264 40.724 50.6144 40.724C50.7744 40.724 50.9664 40.732 51.1904 40.748C51.2624 40.756 51.3464 40.76 51.4424 40.76C51.7624 40.76 52.1184 40.732 52.5104 40.676C52.5744 40.668 52.6424 40.66 52.7144 40.652C52.7864 40.644 52.8584 40.64 52.9304 40.64ZM51.7184 33.908C51.5744 33.908 51.3944 34.152 51.1784 34.64C50.9704 35.128 50.7624 35.776 50.5544 36.584C50.3464 37.384 50.1664 38.232 50.0144 39.128C50.6544 38.4 51.1464 37.644 51.4904 36.86C51.8344 36.068 52.0104 35.328 52.0184 34.64C52.0184 34.152 51.9184 33.908 51.7184 33.908ZM56.6572 41.684C56.7612 41.684 56.8412 41.732 56.8972 41.828C56.9612 41.924 56.9932 42.056 56.9932 42.224C56.9932 42.512 56.9252 42.76 56.7892 42.968C56.5652 43.312 56.2692 43.58 55.9012 43.772C55.5412 43.964 55.1092 44.06 54.6052 44.06C53.8372 44.06 53.2412 43.832 52.8172 43.376C52.3932 42.912 52.1812 42.288 52.1812 41.504C52.1812 40.952 52.2972 40.44 52.5292 39.968C52.7612 39.488 53.0812 39.108 53.4892 38.828C53.9052 38.548 54.3732 38.408 54.8932 38.408C55.3572 38.408 55.7292 38.548 56.0092 38.828C56.2892 39.1 56.4292 39.472 56.4292 39.944C56.4292 40.496 56.2292 40.972 55.8292 41.372C55.4372 41.764 54.7652 42.076 53.8132 42.308C54.0052 42.676 54.3292 42.86 54.7852 42.86C55.1132 42.86 55.3812 42.784 55.5892 42.632C55.8052 42.48 56.0532 42.224 56.3332 41.864C56.4292 41.744 56.5372 41.684 56.6572 41.684ZM54.6892 39.584C54.3932 39.584 54.1412 39.756 53.9332 40.1C53.7332 40.444 53.6332 40.86 53.6332 41.348V41.372C54.1052 41.26 54.4772 41.092 54.7492 40.868C55.0212 40.644 55.1572 40.384 55.1572 40.088C55.1572 39.936 55.1132 39.816 55.0252 39.728C54.9452 39.632 54.8332 39.584 54.6892 39.584Z" fill="#2F2105"/>
</svg>
